<svg width="40" height="40" viewBox="0 0 40 40" fill="none" xmlns="http://www.w3.org/2000/svg">
<rect width="40" height="40" rx="10" fill="#FEFEFE"/>
<g clip-path="url(#clip0_6_234)">
<path d="M30.0844 28.985C28.9152 28.985 28.2218 28.3835 28.1688 27.5172H29.2866C29.2866 27.806 29.4458 28.1904 30.1375 28.2142C30.6168 28.2142 30.8821 27.9255 30.8821 27.7085C30.829 27.3718 30.4027 27.348 29.9782 27.2744C29.4989 27.2045 29.1274 27.107 28.8604 26.9875C28.4889 26.7943 28.2748 26.3842 28.2748 25.952C28.2748 25.1812 28.9152 24.5797 30.0313 24.5797C31.0962 24.5797 31.7878 25.1334 31.8389 25.9758H30.776C30.776 25.7605 30.7229 25.3983 30.0843 25.3983C29.658 25.3983 29.3928 25.47 29.3397 25.7826C29.3397 26.2168 30.2436 26.1928 30.9352 26.3602C31.5737 26.5294 31.9999 26.9378 31.9999 27.5172C31.9999 28.5767 31.1492 28.985 30.0844 28.985V28.985ZM9.71338 21.8768L13.3836 19.7339L15.3523 23.1294H10.405" fill="#1D1E20"/>
<path d="M17.4314 28.8572V24.5715Z" fill="#1D1E20"/>
<path d="M17.4314 28.8572V24.5715" stroke="#1D1E20"/>
<path d="M8.01002 26.7777C8.01002 27.4509 8.59545 28.0046 9.23214 28.0046C9.92557 28.0046 10.4562 27.4509 10.4562 26.7777C10.4562 26.1284 9.92557 25.5509 9.23214 25.5509C8.59545 25.5509 8.01002 26.1284 8.01002 26.7777V26.7777ZM9.17914 28.9923C8.00994 28.9923 7 28.0046 7 26.7777C7 25.5509 8.01002 24.5871 9.17914 24.5871C9.65848 24.5871 10.0847 24.7085 10.4562 24.9715V24.6348H11.521V28.8948H10.4562V28.63C10.1379 28.8709 9.65856 28.9923 9.17922 28.9923H9.17914ZM23.3849 23.1284L18.2784 14.1744L21.9486 12.0076L28.3322 23.1284H23.3849ZM12.9042 26.7777C12.9042 27.4509 13.4367 28.0046 14.1283 28.0046C14.7649 28.0046 15.3523 27.4509 15.3523 26.7777C15.3523 26.1284 14.7649 25.5509 14.1283 25.5509C13.4367 25.5509 12.9042 26.1284 12.9042 26.7777ZM14.0752 28.9923C12.8511 28.9923 11.8943 28.0046 11.8943 26.7777C11.8943 25.5509 12.8511 24.5871 14.0752 24.5871C14.5527 24.5871 14.979 24.7085 15.3523 24.9715V23.167H16.4153V28.8948H15.3522V28.63C14.9789 28.8709 14.5527 28.9923 14.0751 28.9923H14.0752ZM14.0228 18.0496L17.746 15.9326L21.8426 23.1282H17.9583V24.1876H16.8952V23.1282L14.0228 18.0496ZM31.3102 24.221C31.0432 24.221 30.7779 23.98 30.7779 23.6912C30.7779 23.4024 31.0432 23.1615 31.3102 23.1615C31.6286 23.1615 31.8428 23.4025 31.8428 23.6912C31.8428 23.9799 31.6286 24.2211 31.3102 24.2211V24.221ZM31.3102 23.2351C31.0432 23.2351 30.884 23.4503 30.884 23.6912C30.884 23.9322 31.0432 24.1493 31.3102 24.1493C31.5756 24.1493 31.7348 23.9323 31.7348 23.6912C31.7348 23.4502 31.5756 23.2351 31.3102 23.2351Z" fill="#1D1E20"/>
<path d="M31.4202 23.9819L31.314 23.7409H31.2079V23.9819H31.1274V23.4043H31.3671C31.4202 23.4043 31.5263 23.478 31.5263 23.5735C31.5263 23.6691 31.4732 23.7171 31.4202 23.7409L31.5263 23.9819H31.4202ZM31.314 23.478H31.2079V23.6692H31.314C31.4202 23.6692 31.4202 23.6453 31.4202 23.5735C31.4202 23.524 31.4202 23.478 31.314 23.478ZM24.2846 26.7778C24.2846 27.4509 24.8171 28.0046 25.5086 28.0046C26.1471 28.0046 26.7308 27.4509 26.7308 26.7778C26.7308 26.1285 26.1471 25.5509 25.5086 25.5509C24.817 25.5509 24.2846 26.1285 24.2846 26.7778ZM25.4538 28.9924C24.2316 28.9924 23.2747 28.0046 23.2747 26.7778C23.2747 25.5509 24.2316 24.5871 25.4537 24.5871C25.9331 24.5871 26.3594 24.7085 26.7308 24.9715V24.6349H27.7426V28.8949H26.7309V28.63C26.3594 28.871 25.9331 28.9924 25.4537 28.9924H25.4538ZM19.3941 26.7778C19.3941 27.4509 19.9795 28.0046 20.618 28.0046C21.3097 28.0046 21.842 27.4509 21.842 26.7778C21.842 26.1285 21.3096 25.5509 20.618 25.5509C19.9795 25.5509 19.3941 26.1285 19.3941 26.7778ZM21.842 23.1671H22.9051V28.8949H21.842V28.63C21.5219 28.871 21.0956 28.9924 20.618 28.9924C19.3941 28.9924 18.384 28.0046 18.384 26.7778C18.384 25.5509 19.3941 24.5871 20.618 24.5871C21.0955 24.5871 21.5219 24.7085 21.842 24.9715V23.1671Z" fill="#1D1E20"/>
</g>
<defs>
<clipPath id="clip0_6_234">
<rect width="25" height="17" fill="white" transform="translate(7 12)"/>
</clipPath>
</defs>
</svg>
