<svg width="40" height="40" viewBox="0 0 40 40" fill="none" xmlns="http://www.w3.org/2000/svg">
<rect width="40" height="40" rx="10" fill="#FEFEFE"/>
<g clip-path="url(#clip0_933_327)">
<path d="M14.2541 16.2517C14.8732 16.2517 15.3752 16.7861 15.3752 17.4456C15.3752 18.1052 14.8732 18.6396 14.2541 18.6396H9.12743C8.50825 18.6396 8.00635 18.1052 8.00635 17.4456C8.00635 16.7861 8.50825 16.2517 9.12739 16.2517H14.2541Z" fill="#1D1E20"/>
<path d="M13.7387 19.3804C14.358 19.3804 14.8599 19.9149 14.8599 20.5744C14.8599 21.2339 14.358 21.7684 13.7387 21.7684H10.8208C10.5719 21.7693 10.3682 21.979 10.3587 22.2414V23.7976C10.3587 24.457 9.8568 24.9916 9.23778 24.9916C8.6186 24.9916 8.1167 24.457 8.1167 23.7976V21.1492C8.1167 20.1724 8.86021 19.3803 9.77743 19.3803H13.7387V19.3804ZM15.8842 17.194C15.8842 16.5346 16.3861 16 17.0052 16C17.6244 16 18.1263 16.5346 18.1263 17.194V23.806C18.1263 24.4655 17.6245 25 17.0052 25C16.3861 25 15.8842 24.4654 15.8842 23.806V17.194ZM29.6817 22.6318L30.1322 22.6306C30.1765 22.6305 30.2188 22.6118 30.2501 22.5785C30.2814 22.5452 30.2989 22.5 30.299 22.4529C30.2997 22.4296 30.2956 22.4064 30.2872 22.3849L28.612 19.3867L25.9951 24.213C25.7929 24.5862 25.4299 24.7991 25.0532 24.8098C25.042 24.8115 25.0306 24.8123 25.0193 24.8123H20.7604C19.8431 24.8123 19.0996 24.0203 19.0996 23.0435V17.1941C19.0996 16.5347 19.6015 16 20.2206 16C20.8397 16 21.3416 16.5347 21.3416 17.1941V21.932C21.3425 22.1972 21.5393 22.4143 21.7858 22.4242H24.1682C24.2295 22.4041 24.4169 22.3362 24.474 22.2418L27.4664 16.7245C27.6935 16.3092 28.1159 16.0297 28.5993 16.0297C29.083 16.0297 29.5055 16.3097 29.7315 16.7258L32.6475 21.94C32.8724 22.2515 32.9941 22.6336 32.9936 23.0266C32.9936 24.0128 32.243 24.8122 31.3172 24.8122H27.9183C27.3527 24.8122 26.8946 24.3241 26.8946 23.7218C26.8946 23.1199 27.3527 22.6318 27.9183 22.6318H29.6817Z" fill="#1D1E20"/>
</g>
<defs>
<clipPath id="clip0_933_327">
<rect width="25" height="9" fill="white" transform="translate(8 16)"/>
</clipPath>
</defs>
</svg>
