<svg width="40" height="40" viewBox="0 0 40 40" fill="none" xmlns="http://www.w3.org/2000/svg">
<rect width="40" height="40" rx="10" fill="#FEFEFE"/>
<path fill-rule="evenodd" clip-rule="evenodd" d="M12.3581 22.2764C12.1513 22.2764 11.9895 22.4203 11.9895 22.6304C11.9895 22.8406 12.1522 22.9837 12.3581 22.9837C12.5639 22.9837 12.7267 22.8396 12.7267 22.6304C12.7267 22.4203 12.5647 22.2764 12.3581 22.2764ZM12.3581 22.8825C12.2107 22.8825 12.1013 22.7753 12.1013 22.6304C12.1013 22.4856 12.2098 22.3776 12.3581 22.3776C12.5045 22.3776 12.6147 22.4873 12.6147 22.6304C12.6147 22.7727 12.5036 22.8825 12.3581 22.8825ZM15.9449 21.0381H14.1505L14.3544 17.9338L13.1891 21.0381H11.5228L14.1667 14.0214H15.9398L15.7351 17.1684L16.9225 14.0214H18.589L15.9449 21.0381ZM16.1614 21.0381L18.8052 14.0214H20.4715L17.8277 21.0381H16.1614Z" fill="#1D1E20"/>
<path fill-rule="evenodd" clip-rule="evenodd" d="M11.3306 18.6196C9.00203 21.3413 6.80548 24.9628 8.74568 26.6304C10.6257 28.2465 12.9757 27.2896 14.578 26.6517C16.1803 26.0138 33.8904 18.3591 33.8904 18.3591C34.0613 18.2741 34.0293 18.1677 33.8156 18.2208C33.7295 18.2422 14.5353 23.4196 14.5353 23.4196C12.0996 24.1001 9.32244 22.6169 11.3306 18.6196Z" fill="#1D1E20"/>
<path fill-rule="evenodd" clip-rule="evenodd" d="M12.4209 22.6553C12.4726 22.6529 12.513 22.6263 12.513 22.5551C12.513 22.4633 12.4527 22.4402 12.3519 22.4402H12.2072V22.8209H12.3037V22.6588H12.32L12.4079 22.8209H12.519L12.4209 22.6553ZM12.3589 22.5937H12.3039V22.5053H12.3503C12.3788 22.5053 12.4114 22.5086 12.4114 22.5455C12.4114 22.5851 12.3925 22.5937 12.3589 22.5937ZM29.1088 14C28.9021 14 28.7402 14.1441 28.7402 14.354C28.7402 14.5641 28.9031 14.7072 29.1088 14.7072C29.3146 14.7072 29.4775 14.5631 29.4775 14.354C29.4776 14.1441 29.3157 14 29.1088 14ZM29.1088 14.6063C28.9614 14.6063 28.8521 14.4991 28.8521 14.3542C28.8521 14.2094 28.9606 14.1014 29.1088 14.1014C29.2553 14.1014 29.3656 14.211 29.3656 14.3542C29.3656 14.4965 29.2545 14.6063 29.1088 14.6063Z" fill="#1D1E20"/>
<path fill-rule="evenodd" clip-rule="evenodd" d="M29.1718 14.3789C29.2235 14.3764 29.264 14.3499 29.264 14.2787C29.264 14.1868 29.2036 14.1637 29.103 14.1637H28.9582V14.5443H29.0547V14.3824H29.0711L29.1589 14.5443H29.27L29.1718 14.3789ZM29.1097 14.3172H29.0547V14.2289H29.1012C29.1296 14.2289 29.1623 14.2323 29.1623 14.2693C29.1623 14.3087 29.1433 14.3172 29.1097 14.3172ZM28.0109 15.191L28.4587 14.0214H23.3742L21.6284 16.1265L22.4344 14.0214H20.7467L18.124 21.0382H19.7903L20.9101 18.1039L20.9868 21.0382L26.0998 21.0272L26.5865 19.6774H24.6425L25.2812 17.9764H26.8834L27.3764 16.6688H25.7742L26.3235 15.191H28.0109ZM22.6399 20.5704L22.5331 16.9133L25.0525 14.16L22.6399 20.5704Z" fill="#1D1E20"/>
</svg>
